
<svg width="15rem" height="10rem" viewBox="0 0 200 150"
  xmlns="http://www.w3.org/2000/svg"
  xmlns:svg="http://www.w3.org/2000/svg">
  <g style="transform:translate(10%,35%) rotate(-20deg)">
    <rect style="fill:white;stroke:#ee262c;stroke-width:5;filter: drop-shadow(0.2rem 0.2rem 0.2rem grey);" width="145" height="95" x="2.5" y="2.5" ry="5" />
    <rect style="fill:none;stroke:#ee262c;stroke-width:1.2" width="135" height="85" x="7.5" y="7.5" ry="5" />
    <text style="font-size:42;font-family:'Cabin',monospace;fill:#ff0000;stroke-width:0.3;font-weight:700">
      <tspan x="22" y="50">SOLD</tspan>
      <tspan x="32" y="85">OUT</tspan>
    </text>
  </g>
  <g id="star-template" fill="#f2f2f2" style="transform:scale(0.2) translate(15rem,24rem);animation:popup 4s linear 0s infinite">
      <circle r="20" cx="100" cy="100" />
      <path d="M 96,84, 100,0 104,84"/>
      <path d="M 84,96, 0,100 84,104"/>
      <path d="M 96,116 100,200 104,116"/>
      <path d="M 116,96 200,100 116,104"/>
      <path d="M 92,86 50,50 86,92"/>
      <path d="M 108,86 150,50 114,92"/>
      <path d="M 92,114 50,150 86,108"/>
      <path d="M 108,114 150,150 114,108"/>
   </g>
</svg>

