
<svg width="15rem" height="10rem" viewBox="0 0 200 150"
  xmlns="http://www.w3.org/2000/svg"
  xmlns:svg="http://www.w3.org/2000/svg">
  <g style="transform:translate(10%,35%) rotate(-20deg)">
    <rect style="fill:white;stroke:#ee262c;stroke-width:5;filter: drop-shadow(0.2rem 0.2rem 0.2rem grey);" width="145" height="95" x="2.5" y="2.5" ry="5" />
    <rect style="fill:none;stroke:#ee262c;stroke-width:1.2" width="135" height="85" x="7.5" y="7.5" ry="5" />
    <text style="font-size:42;font-family:'Cabin',monospace;fill:#ff0000;stroke-width:0.3;font-weight:700">
      <tspan x="22" y="50">SOLD</tspan>
      <tspan x="32" y="85">OUT</tspan>
    </text>
  </g>
  <g transform="translate(0.2rem,0.2rem);scale:0.1">
      <animate
      attributeName="opacity"
      begin="0s"
      dur="4s"
      from="0"
      to="1"
      repeatCount="indefinite" />
      <circle style="fill:black;stroke:black" r="20" cx="100" cy="100" />
      <path style="fill:black;" d="M 96,84, 100,0 104,84"/>
      <path style="fill:black;" d="M 84,96, 0,100 84,104"/>
      <path style="fill:black;" d="M 96,116 100,200 104,116"/>
      <path style="fill:black;" d="M 116,96 200,100 116,104"/>
      <path style="fill:black;" d="M 92,86 50,50 86,92"/>
      <path style="fill:black;" d="M 108,86 150,50 114,92"/>
      <path style="fill:black;" d="M 92,114 50,150 86,108"/>
      <path style="fill:black;" d="M 108,114 150,150 114,108"/>
   </g>
</svg>

