<?xml version="1.0" encoding="UTF-8" standalone="no"?>
<svg width="264" height="312" viewBox="0 0 264 312" version="1.1" id="svg342"
   xmlns:xlink="http://www.w3.org/1999/xlink"
   xmlns="http://www.w3.org/2000/svg"
   xmlns:svg="http://www.w3.org/2000/svg">
   <rect x="0" y="0" width="264" height="312" fill="#ffffff" id="rect2" style="stroke-width:1.08574;fill-opacity:1;" />
   <defs id="defs5">
      <rect id="p" width="8" height="8" />
   </defs>
   <g fill="#264653" id="g657">
      <use xlink:href="#p" x="32" y="32" id="use7" />
      <use xlink:href="#p" x="32" y="40" id="use9" />
      <use xlink:href="#p" x="32" y="48" id="use11" />
      <use xlink:href="#p" x="32" y="56" id="use13" />
      <use xlink:href="#p" x="32" y="64" id="use15" />
      <use xlink:href="#p" x="32" y="72" id="use17" />
      <use xlink:href="#p" x="32" y="80" id="use19" />
      <use xlink:href="#p" x="32" y="96" id="use21" />
      <use xlink:href="#p" x="32" y="112" id="use23" />
      <use xlink:href="#p" x="32" y="120" id="use25" />
      <use xlink:href="#p" x="32" y="176" id="use27" />
      <use xlink:href="#p" x="32" y="184" id="use29" />
      <use xlink:href="#p" x="32" y="192" id="use31" />
      <use xlink:href="#p" x="32" y="200" id="use33" />
      <use xlink:href="#p" x="32" y="208" id="use35" />
      <use xlink:href="#p" x="32" y="216" id="use37" />
      <use xlink:href="#p" x="32" y="224" id="use39" />
      <use xlink:href="#p" x="40" y="32" id="use41" />
      <use xlink:href="#p" x="40" y="80" id="use43" />
      <use xlink:href="#p" x="40" y="96" id="use45" />
      <use xlink:href="#p" x="40" y="104" id="use47" />
      <use xlink:href="#p" x="40" y="128" id="use49" />
      <use xlink:href="#p" x="40" y="136" id="use51" />
      <use xlink:href="#p" x="40" y="152" id="use53" />
      <use xlink:href="#p" x="40" y="160" id="use55" />
      <use xlink:href="#p" x="40" y="176" id="use57" />
      <use xlink:href="#p" x="40" y="224" id="use59" />
      <use xlink:href="#p" x="48" y="32" id="use61" />
      <use xlink:href="#p" x="48" y="48" id="use63" />
      <use xlink:href="#p" x="48" y="56" id="use65" />
      <use xlink:href="#p" x="48" y="64" id="use67" />
      <use xlink:href="#p" x="48" y="80" id="use69" />
      <use xlink:href="#p" x="48" y="104" id="use71" />
      <use xlink:href="#p" x="48" y="112" id="use73" />
      <use xlink:href="#p" x="48" y="120" id="use75" />
      <use xlink:href="#p" x="48" y="136" id="use77" />
      <use xlink:href="#p" x="48" y="176" id="use79" />
      <use xlink:href="#p" x="48" y="192" id="use81" />
      <use xlink:href="#p" x="48" y="200" id="use83" />
      <use xlink:href="#p" x="48" y="208" id="use85" />
      <use xlink:href="#p" x="48" y="224" id="use87" />
      <use xlink:href="#p" x="56" y="32" id="use89" />
      <use xlink:href="#p" x="56" y="48" id="use91" />
      <use xlink:href="#p" x="56" y="56" id="use93" />
      <use xlink:href="#p" x="56" y="64" id="use95" />
      <use xlink:href="#p" x="56" y="80" id="use97" />
      <use xlink:href="#p" x="56" y="96" id="use99" />
      <use xlink:href="#p" x="56" y="104" id="use101" />
      <use xlink:href="#p" x="56" y="112" id="use103" />
      <use xlink:href="#p" x="56" y="128" id="use105" />
      <use xlink:href="#p" x="56" y="144" id="use107" />
      <use xlink:href="#p" x="56" y="160" id="use109" />
      <use xlink:href="#p" x="56" y="176" id="use111" />
      <use xlink:href="#p" x="56" y="192" id="use113" />
      <use xlink:href="#p" x="56" y="200" id="use115" />
      <use xlink:href="#p" x="56" y="208" id="use117" />
      <use xlink:href="#p" x="56" y="224" id="use119" />
      <use xlink:href="#p" x="64" y="32" id="use121" />
      <use xlink:href="#p" x="64" y="48" id="use123" />
      <use xlink:href="#p" x="64" y="56" id="use125" />
      <use xlink:href="#p" x="64" y="64" id="use127" />
      <use xlink:href="#p" x="64" y="80" id="use129" />
      <use xlink:href="#p" x="64" y="96" id="use131" />
      <use xlink:href="#p" x="64" y="112" id="use133" />
      <use xlink:href="#p" x="64" y="128" id="use135" />
      <use xlink:href="#p" x="64" y="144" id="use137" />
      <use xlink:href="#p" x="64" y="152" id="use139" />
      <use xlink:href="#p" x="64" y="176" id="use141" />
      <use xlink:href="#p" x="64" y="192" id="use143" />
      <use xlink:href="#p" x="64" y="200" id="use145" />
      <use xlink:href="#p" x="64" y="208" id="use147" />
      <use xlink:href="#p" x="64" y="224" id="use149" />
      <use xlink:href="#p" x="72" y="32" id="use151" />
      <use xlink:href="#p" x="72" y="80" id="use153" />
      <use xlink:href="#p" x="72" y="104" id="use155" />
      <use xlink:href="#p" x="72" y="112" id="use157" />
      <use xlink:href="#p" x="72" y="128" id="use159" />
      <use xlink:href="#p" x="72" y="160" id="use161" />
      <use xlink:href="#p" x="72" y="176" id="use163" />
      <use xlink:href="#p" x="72" y="224" id="use165" />
      <use xlink:href="#p" x="80" y="32" id="use167" />
      <use xlink:href="#p" x="80" y="40" id="use169" />
      <use xlink:href="#p" x="80" y="48" id="use171" />
      <use xlink:href="#p" x="80" y="56" id="use173" />
      <use xlink:href="#p" x="80" y="64" id="use175" />
      <use xlink:href="#p" x="80" y="72" id="use177" />
      <use xlink:href="#p" x="80" y="80" id="use179" />
      <use xlink:href="#p" x="80" y="96" id="use181" />
      <use xlink:href="#p" x="80" y="112" id="use183" />
      <use xlink:href="#p" x="80" y="128" id="use185" />
      <use xlink:href="#p" x="80" y="144" id="use187" />
      <use xlink:href="#p" x="80" y="160" id="use189" />
      <use xlink:href="#p" x="80" y="176" id="use191" />
      <use xlink:href="#p" x="80" y="184" id="use193" />
      <use xlink:href="#p" x="80" y="192" id="use195" />
      <use xlink:href="#p" x="80" y="200" id="use197" />
      <use xlink:href="#p" x="80" y="208" id="use199" />
      <use xlink:href="#p" x="80" y="216" id="use201" />
      <use xlink:href="#p" x="80" y="224" id="use203" />
      <use xlink:href="#p" x="88" y="120" id="use205" />
      <use xlink:href="#p" x="88" y="144" id="use207" />
      <use xlink:href="#p" x="88" y="152" id="use209" />
      <use xlink:href="#p" x="88" y="160" id="use211" />
      <use xlink:href="#p" x="96" y="32" id="use213" />
      <use xlink:href="#p" x="96" y="80" id="use215" />
      <use xlink:href="#p" x="96" y="88" id="use217" />
      <use xlink:href="#p" x="96" y="104" id="use219" />
      <use xlink:href="#p" x="96" y="112" id="use221" />
      <use xlink:href="#p" x="96" y="144" id="use223" />
      <use xlink:href="#p" x="96" y="168" id="use225" />
      <use xlink:href="#p" x="96" y="192" id="use227" />
      <use xlink:href="#p" x="96" y="200" id="use229" />
      <use xlink:href="#p" x="96" y="216" id="use231" />
      <use xlink:href="#p" x="96" y="224" id="use233" />
      <use xlink:href="#p" x="104" y="32" id="use235" />
      <use xlink:href="#p" x="104" y="48" id="use237" />
      <use xlink:href="#p" x="104" y="72" id="use239" />
      <use xlink:href="#p" x="104" y="88" id="use241" />
      <use xlink:href="#p" x="104" y="96" id="use243" />
      <use xlink:href="#p" x="104" y="112" id="use245" />
      <use xlink:href="#p" x="104" y="128" id="use247" />
      <use xlink:href="#p" x="104" y="136" id="use249" />
      <use xlink:href="#p" x="104" y="144" id="use251" />
      <use xlink:href="#p" x="104" y="152" id="use253" />
      <use xlink:href="#p" x="104" y="160" id="use255" />
      <use xlink:href="#p" x="104" y="168" id="use257" />
      <use xlink:href="#p" x="104" y="176" id="use259" />
      <use xlink:href="#p" x="104" y="184" id="use261" />
      <use xlink:href="#p" x="104" y="208" id="use263" />
      <use xlink:href="#p" x="104" y="216" id="use265" />
      <use xlink:href="#p" x="112" y="32" id="use267" />
      <use xlink:href="#p" x="112" y="56" id="use269" />
      <use xlink:href="#p" x="112" y="64" id="use271" />
      <use xlink:href="#p" x="112" y="80" id="use273" />
      <use xlink:href="#p" x="112" y="104" id="use275" />
      <use xlink:href="#p" x="112" y="128" id="use277" />
      <use xlink:href="#p" x="112" y="136" id="use279" />
      <use xlink:href="#p" x="112" y="152" id="use281" />
      <use xlink:href="#p" x="112" y="176" id="use283" />
      <use xlink:href="#p" x="112" y="208" id="use285" />
      <use xlink:href="#p" x="112" y="216" id="use287" />
      <use xlink:href="#p" x="120" y="32" id="use289" />
      <use xlink:href="#p" x="120" y="40" id="use291" />
      <use xlink:href="#p" x="120" y="48" id="use293" />
      <use xlink:href="#p" x="120" y="56" id="use295" />
      <use xlink:href="#p" x="120" y="64" id="use297" />
      <use xlink:href="#p" x="120" y="72" id="use299" />
      <use xlink:href="#p" x="120" y="104" id="use301" />
      <use xlink:href="#p" x="120" y="112" id="use303" />
      <use xlink:href="#p" x="120" y="120" id="use305" />
      <use xlink:href="#p" x="120" y="128" id="use307" />
      <use xlink:href="#p" x="120" y="136" id="use309" />
      <use xlink:href="#p" x="120" y="152" id="use311" />
      <use xlink:href="#p" x="120" y="176" id="use313" />
      <use xlink:href="#p" x="120" y="200" id="use315" />
      <use xlink:href="#p" x="120" y="208" id="use317" />
      <use xlink:href="#p" x="120" y="224" id="use319" />
      <use xlink:href="#p" x="128" y="40" id="use321" />
      <use xlink:href="#p" x="128" y="56" id="use323" />
      <use xlink:href="#p" x="128" y="64" id="use325" />
      <use xlink:href="#p" x="128" y="80" id="use327" />
      <use xlink:href="#p" x="128" y="96" id="use329" />
      <use xlink:href="#p" x="128" y="112" id="use331" />
      <use xlink:href="#p" x="128" y="128" id="use333" />
      <use xlink:href="#p" x="128" y="144" id="use335" />
      <use xlink:href="#p" x="128" y="160" id="use337" />
      <use xlink:href="#p" x="128" y="168" id="use339" />
      <use xlink:href="#p" x="128" y="176" id="use341" />
      <use xlink:href="#p" x="128" y="208" id="use343" />
      <use xlink:href="#p" x="128" y="216" id="use345" />
      <use xlink:href="#p" x="136" y="32" id="use347" />
      <use xlink:href="#p" x="136" y="48" id="use349" />
      <use xlink:href="#p" x="136" y="56" id="use351" />
      <use xlink:href="#p" x="136" y="88" id="use353" />
      <use xlink:href="#p" x="136" y="112" id="use355" />
      <use xlink:href="#p" x="136" y="136" id="use357" />
      <use xlink:href="#p" x="136" y="144" id="use359" />
      <use xlink:href="#p" x="136" y="160" id="use361" />
      <use xlink:href="#p" x="136" y="168" id="use363" />
      <use xlink:href="#p" x="136" y="184" id="use365" />
      <use xlink:href="#p" x="144" y="32" id="use367" />
      <use xlink:href="#p" x="144" y="48" id="use369" />
      <use xlink:href="#p" x="144" y="64" id="use371" />
      <use xlink:href="#p" x="144" y="72" id="use373" />
      <use xlink:href="#p" x="144" y="80" id="use375" />
      <use xlink:href="#p" x="144" y="96" id="use377" />
      <use xlink:href="#p" x="144" y="112" id="use379" />
      <use xlink:href="#p" x="144" y="120" id="use381" />
      <use xlink:href="#p" x="144" y="144" id="use383" />
      <use xlink:href="#p" x="144" y="152" id="use385" />
      <use xlink:href="#p" x="144" y="192" id="use387" />
      <use xlink:href="#p" x="144" y="200" id="use389" />
      <use xlink:href="#p" x="144" y="216" id="use391" />
      <use xlink:href="#p" x="152" y="48" id="use393" />
      <use xlink:href="#p" x="152" y="56" id="use395" />
      <use xlink:href="#p" x="152" y="96" id="use397" />
      <use xlink:href="#p" x="152" y="104" id="use399" />
      <use xlink:href="#p" x="152" y="112" id="use401" />
      <use xlink:href="#p" x="152" y="120" id="use403" />
      <use xlink:href="#p" x="152" y="136" id="use405" />
      <use xlink:href="#p" x="152" y="144" id="use407" />
      <use xlink:href="#p" x="152" y="160" id="use409" />
      <use xlink:href="#p" x="152" y="168" id="use411" />
      <use xlink:href="#p" x="152" y="184" id="use413" />
      <use xlink:href="#p" x="152" y="192" id="use415" />
      <use xlink:href="#p" x="152" y="200" id="use417" />
      <use xlink:href="#p" x="152" y="224" id="use419" />
      <use xlink:href="#p" x="160" y="40" id="use421" />
      <use xlink:href="#p" x="160" y="56" id="use423" />
      <use xlink:href="#p" x="160" y="72" id="use425" />
      <use xlink:href="#p" x="160" y="80" id="use427" />
      <use xlink:href="#p" x="160" y="88" id="use429" />
      <use xlink:href="#p" x="160" y="96" id="use431" />
      <use xlink:href="#p" x="160" y="128" id="use433" />
      <use xlink:href="#p" x="160" y="136" id="use435" />
      <use xlink:href="#p" x="160" y="160" id="use437" />
      <use xlink:href="#p" x="160" y="168" id="use439" />
      <use xlink:href="#p" x="160" y="176" id="use441" />
      <use xlink:href="#p" x="160" y="184" id="use443" />
      <use xlink:href="#p" x="160" y="192" id="use445" />
      <use xlink:href="#p" x="160" y="200" id="use447" />
      <use xlink:href="#p" x="160" y="208" id="use449" />
      <use xlink:href="#p" x="160" y="224" id="use451" />
      <use xlink:href="#p" x="168" y="104" id="use453" />
      <use xlink:href="#p" x="168" y="144" id="use455" />
      <use xlink:href="#p" x="168" y="160" id="use457" />
      <use xlink:href="#p" x="168" y="192" id="use459" />
      <use xlink:href="#p" x="168" y="200" id="use461" />
      <use xlink:href="#p" x="168" y="208" id="use463" />
      <use xlink:href="#p" x="176" y="32" id="use465" />
      <use xlink:href="#p" x="176" y="40" id="use467" />
      <use xlink:href="#p" x="176" y="48" id="use469" />
      <use xlink:href="#p" x="176" y="56" id="use471" />
      <use xlink:href="#p" x="176" y="64" id="use473" />
      <use xlink:href="#p" x="176" y="72" id="use475" />
      <use xlink:href="#p" x="176" y="80" id="use477" />
      <use xlink:href="#p" x="176" y="96" id="use479" />
      <use xlink:href="#p" x="176" y="112" id="use481" />
      <use xlink:href="#p" x="176" y="120" id="use483" />
      <use xlink:href="#p" x="176" y="128" id="use485" />
      <use xlink:href="#p" x="176" y="160" id="use487" />
      <use xlink:href="#p" x="176" y="176" id="use489" />
      <use xlink:href="#p" x="176" y="192" id="use491" />
      <use xlink:href="#p" x="176" y="200" id="use493" />
      <use xlink:href="#p" x="176" y="216" id="use495" />
      <use xlink:href="#p" x="184" y="32" id="use497" />
      <use xlink:href="#p" x="184" y="80" id="use499" />
      <use xlink:href="#p" x="184" y="104" id="use501" />
      <use xlink:href="#p" x="184" y="128" id="use503" />
      <use xlink:href="#p" x="184" y="152" id="use505" />
      <use xlink:href="#p" x="184" y="160" id="use507" />
      <use xlink:href="#p" x="184" y="192" id="use509" />
      <use xlink:href="#p" x="184" y="216" id="use511" />
      <use xlink:href="#p" x="192" y="32" id="use513" />
      <use xlink:href="#p" x="192" y="48" id="use515" />
      <use xlink:href="#p" x="192" y="56" id="use517" />
      <use xlink:href="#p" x="192" y="64" id="use519" />
      <use xlink:href="#p" x="192" y="80" id="use521" />
      <use xlink:href="#p" x="192" y="104" id="use523" />
      <use xlink:href="#p" x="192" y="120" id="use525" />
      <use xlink:href="#p" x="192" y="136" id="use527" />
      <use xlink:href="#p" x="192" y="144" id="use529" />
      <use xlink:href="#p" x="192" y="160" id="use531" />
      <use xlink:href="#p" x="192" y="168" id="use533" />
      <use xlink:href="#p" x="192" y="176" id="use535" />
      <use xlink:href="#p" x="192" y="184" id="use537" />
      <use xlink:href="#p" x="192" y="192" id="use539" />
      <use xlink:href="#p" x="192" y="208" id="use541" />
      <use xlink:href="#p" x="192" y="216" id="use543" />
      <use xlink:href="#p" x="200" y="32" id="use545" />
      <use xlink:href="#p" x="200" y="48" id="use547" />
      <use xlink:href="#p" x="200" y="56" id="use549" />
      <use xlink:href="#p" x="200" y="64" id="use551" />
      <use xlink:href="#p" x="200" y="80" id="use553" />
      <use xlink:href="#p" x="200" y="104" id="use555" />
      <use xlink:href="#p" x="200" y="112" id="use557" />
      <use xlink:href="#p" x="200" y="120" id="use559" />
      <use xlink:href="#p" x="200" y="144" id="use561" />
      <use xlink:href="#p" x="200" y="152" id="use563" />
      <use xlink:href="#p" x="200" y="208" id="use565" />
      <use xlink:href="#p" x="200" y="224" id="use567" />
      <use xlink:href="#p" x="208" y="32" id="use569" />
      <use xlink:href="#p" x="208" y="48" id="use571" />
      <use xlink:href="#p" x="208" y="56" id="use573" />
      <use xlink:href="#p" x="208" y="64" id="use575" />
      <use xlink:href="#p" x="208" y="80" id="use577" />
      <use xlink:href="#p" x="208" y="104" id="use579" />
      <use xlink:href="#p" x="208" y="120" id="use581" />
      <use xlink:href="#p" x="208" y="144" id="use583" />
      <use xlink:href="#p" x="208" y="152" id="use585" />
      <use xlink:href="#p" x="208" y="160" id="use587" />
      <use xlink:href="#p" x="208" y="168" id="use589" />
      <use xlink:href="#p" x="208" y="208" id="use591" />
      <use xlink:href="#p" x="208" y="216" id="use593" />
      <use xlink:href="#p" x="216" y="32" id="use595" />
      <use xlink:href="#p" x="216" y="80" id="use597" />
      <use xlink:href="#p" x="216" y="104" id="use599" />
      <use xlink:href="#p" x="216" y="120" id="use601" />
      <use xlink:href="#p" x="216" y="136" id="use603" />
      <use xlink:href="#p" x="216" y="144" id="use605" />
      <use xlink:href="#p" x="216" y="160" id="use607" />
      <use xlink:href="#p" x="216" y="168" id="use609" />
      <use xlink:href="#p" x="216" y="192" id="use611" />
      <use xlink:href="#p" x="216" y="200" id="use613" />
      <use xlink:href="#p" x="216" y="208" id="use615" />
      <use xlink:href="#p" x="216" y="216" id="use617" />
      <use xlink:href="#p" x="224" y="32" id="use619" />
      <use xlink:href="#p" x="224" y="40" id="use621" />
      <use xlink:href="#p" x="224" y="48" id="use623" />
      <use xlink:href="#p" x="224" y="56" id="use625" />
      <use xlink:href="#p" x="224" y="64" id="use627" />
      <use xlink:href="#p" x="224" y="72" id="use629" />
      <use xlink:href="#p" x="224" y="80" id="use631" />
      <use xlink:href="#p" x="224" y="96" id="use633" />
      <use xlink:href="#p" x="224" y="112" id="use635" />
      <use xlink:href="#p" x="224" y="120" id="use637" />
      <use xlink:href="#p" x="224" y="128" id="use639" />
      <use xlink:href="#p" x="224" y="144" id="use641" />
      <use xlink:href="#p" x="224" y="152" id="use643" />
      <use xlink:href="#p" x="224" y="176" id="use645" />
      <use xlink:href="#p" x="224" y="184" id="use647" />
      <use xlink:href="#p" x="224" y="200" id="use649" />
      <use xlink:href="#p" x="224" y="208" id="use651" />
      <use xlink:href="#p" x="224" y="216" id="use653" />
      <use xlink:href="#p" x="224" y="224" id="use655" />
   </g>
   <g id="g659" />
   <text x="4" y="247.38382" style="font-style:normal;font-variant:normal;font-weight:normal;font-stretch:normal;font-size:18.1338px;line-height:1.25;font-family:'URW Gothic';-inkscape-font-specification:'URW Gothic, Normal';font-variant-ligatures:normal;font-variant-caps:normal;font-variant-numeric:normal;font-variant-east-asian:normal;fill:#264653;fill-opacity:1;stroke:none;stroke-width:0.971452" transform="scale(0.97145213,1.0293868)" id="text334">
      <tspan x="4" y="247.38382" style="font-style:normal;font-variant:normal;font-weight:normal;font-stretch:normal;font-size:18.1338px;font-family:'URW Gothic';-inkscape-font-specification:'URW Gothic, Normal';font-variant-ligatures:normal;font-variant-caps:normal;font-variant-numeric:normal;font-variant-east-asian:normal;fill:#264653;fill-opacity:1;stroke-width:0.971452" id="tspan332">https://jung-und-gestoert.de</tspan>
   </text>
   <text style="font-style:normal;font-variant:normal;font-weight:normal;font-stretch:normal;font-size:16px;line-height:1.25;font-family:Chilanka;-inkscape-font-specification:'Chilanka, Normal';font-variant-ligatures:normal;font-variant-caps:normal;font-variant-numeric:normal;font-variant-east-asian:normal;fill:#264653;fill-opacity:1;stroke:none" x="18" y="277.83832" id="text58470">
      <tspan x="18" y="277.83832" style="font-style:normal;font-variant:normal;font-weight:normal;font-stretch:normal;font-size:16px;font-family:Chilanka;-inkscape-font-specification:'Chilanka, Normal';font-variant-ligatures:normal;font-variant-caps:normal;font-variant-numeric:normal;font-variant-east-asian:normal;fill:#264653;fill-opacity:1" id="tspan336">Selbsthilfegruppe für psychisch</tspan>
      <tspan x="24" y="297.83832" style="font-style:normal;font-variant:normal;font-weight:normal;font-stretch:normal;font-size:16px;font-family:Chilanka;-inkscape-font-specification:'Chilanka, Normal';font-variant-ligatures:normal;font-variant-caps:normal;font-variant-numeric:normal;font-variant-east-asian:normal;fill:#264653;fill-opacity:1" id="tspan72062">Erkrankte im Raum Mannheim</tspan>
   </text>
   <path d="M 3.9999887,257.78138 247.99765,258.27351" style="fill:none;fill-opacity:1;stroke:#264653;stroke-width:1.18713;stroke-linecap:butt;stroke-linejoin:miter;stroke-miterlimit:4;stroke-dasharray:none;stroke-opacity:1" id="path340" />
</svg>
